<?xml version="1.0" encoding="utf-8"?>
<!-- Generator: Adobe Illustrator 26.3.1, SVG Export Plug-In . SVG Version: 6.00 Build 0)  -->
<svg version="1.1" id="Calque_1" xmlns="http://www.w3.org/2000/svg" xmlns:xlink="http://www.w3.org/1999/xlink" x="0px" y="0px"
	 viewBox="0 0 317 500" style="enable-background:new 0 0 317 500;" xml:space="preserve">
<style type="text/css">
	.st0{fill:#FFFFFF;}
	.st1{fill:#EFD242;}
</style>
<g>
	<path class="st0" d="M12.9,213.4c-8.7-9.6-13-23.4-13-41.3v-12.7h32.9v15.2c0,14.3,6,21.5,18,21.5c5.9,0,10.4-1.7,13.4-5.2
		c3.1-3.5,4.6-9.1,4.6-16.9c0-9.3-2.1-17.5-6.3-24.5c-4.2-7.1-12-15.6-23.4-25.5c-14.3-12.6-24.4-24-30-34.3
		C3.4,79.5,0.5,67.9,0.5,55.1c0-17.5,4.4-31.1,13.3-40.7S35.5,0,52.4,0c16.7,0,29.3,4.8,37.8,14.4C98.8,24,103,37.8,103,55.7v9.2
		H70.1V53.5c0-7.6-1.5-13.1-4.4-16.6c-3-3.5-7.3-5.2-13-5.2c-11.6,0-17.4,7.1-17.4,21.2c0,8,2.2,15.5,6.5,22.5S54,90.8,65.4,100.7
		C80,113.4,90,124.9,95.5,135.2s8.2,22.5,8.2,36.4c0,18.1-4.5,32.1-13.4,41.8c-9,9.7-22,14.6-39.1,14.6
		C34.3,227.8,21.5,223.1,12.9,213.4z"/>
</g>
<g>
	<path class="st0" d="M210,278.5h34.8v90.2h37.3v-90.2H317V500h-34.8v-99.7h-37.3V500H210V278.5z"/>
</g>
<g>
	
		<rect x="48" y="247.9" transform="matrix(0.707 -0.7072 0.7072 0.707 -133.2866 186.7876)" class="st1" width="221.5" height="12.7"/>
</g>
</svg>
